<svg xmlns="http://www.w3.org/2000/svg" viewBox="0 0 180 180">
  <rect width="180" height="180" rx="40" fill="#0b0b0a"/>
  <g transform="translate(47.4 40) scale(0.704)"><path d="M0.0302198 23.9867C0.0375445 10.7371 10.7806 0 24.0302 0H106.043H121.427L121.384 72.8857H47.6298C47.6298 74.9143 47.7646 76.1314 48.0344 76.5371C48.3041 76.8076 49.4505 76.9429 51.4736 76.9429H121.384V113.617C121.384 123.49 121.225 110.287 120.82 116.643C120.55 122.864 119.674 127.732 118.19 131.249C116.706 134.765 114.211 137.267 110.705 138.754C107.198 140.242 102.343 141.189 96.1387 141.594C89.9347 141.865 81.8425 142 71.862 142H0.0434802L0 113.955H79.9108C81.9338 113.955 83.0802 113.82 83.35 113.549C83.6197 113.144 83.7546 111.926 83.7546 109.898H0L0.00073773 77.3172L0.0302198 23.9867Z" fill="#fff"/></g>
</svg>
